<?xml version="1.0"?><svg version="1.2" baseProfile="tiny-ps" viewBox="0 0 256 256" xmlns="http://www.w3.org/2000/svg" xmlns:xlink="http://www.w3.org/1999/xlink"><title>PrivacyHawk</title><g><g fill="#fff" transform="matrix(.1 0 0 -.1 0 256)"><path d="M0 1280V0h2560v2560H0V1280z"/></g><g fill="#e7cdcc" transform="matrix(.1 0 0 -.1 0 256)"><path d="M136 1475c-47-16-91-57-117-107l-19-37v-99l14-34 15-35 40-36 40-36 43-11 42-12 40 6c22 4 56 16 75 27l36 20 29 41 30 42 4 57 4 57-11 35-12 35-43 40-44 40-38 11c-51 14-80 13-128-4zm151-42 35-16 25-38 25-38 5-39 5-40-11-34-11-35-30-28-30-29-57-4-58-4-27 22-28 21v46l23 11 22 11h-28l-27 1-21-21-22-21 5 13c3 8 16 21 31 29l26 14 48-12 48-12 24-27 23-27 14 19c18 24 18 46-1 71-8 10-15 29-15 41v23l-69 52-70 52 5 8 5 8h101l35-17zm-47-135c0-16-20-7-30 12l-11 21 20-13c12-7 21-16 21-20zm590 137-12-15 6-16 6-15 22 3 23 3 3 19 4 19-14 8c-18 12-24 11-38-6zm860-115v-130h49l3 61 3 62 18 11 17 11 18-11 17-11 3-62 3-61h51l-4 69-4 70-19 21-20 22-42-4-43-3v85h-50v-130zm700 1v-131h50v75l31-38 30-37h59v8c0 4-18 26-40 47l-40 39 42 43 42 43h-60l-30-31-29-31-5 69-5 68-22 3-23 3v-130zm-1865 50c-31-9-51-24-64-48l-11-22v-181h50v94l12-12 12-12h67l24 26 25 27v74l-25 26c-27 27-58 36-90 28zm53-53 12-12v-55l-19-11c-27-14-37-13-55 6l-16 15v48l18 10c23 14 45 14 60-1zm136 54c-12-2-30-12-39-22l-18-19-5-71-5-70h53v118l15 12 15 12 15-6 15-5v-31h50v16c0 8-4 24-10 34l-10 18-27 9c-16 5-38 7-49 5zm640 0c-12-2-32-14-45-28l-24-25v-81l28-24 28-24h34c47 0 64 8 81 41l15 29h-19c-11 0-33-7-49-15l-31-15-15 6c-20 7-30 38-22 63l6 20 20 6 20 7 24-16c26-17 65-21 65-7 0 5-8 18-17 30l-18 21-30 8c-16 4-40 6-51 4zm-524-92v-90h50v180h-50v-90zm60 88c0-2 15-42 34-89l34-84h55l28 67c15 37 30 76 34 87l6 21h-49l-18-52c-9-29-19-57-22-62l-5-9-22 59-22 59-26 3c-15 2-27 2-27 0zm215-24-25-27v-78l25-24 24-25h67l12 12 12 12v-24h52l-4 65-4 64-24 26-23 25h-88l-24-26zm99-30c9-8 16-24 16-34v-20l-24-15-25-16-20 11-21 11v55l12 12c17 17 44 15 62-4zm279-10 5-65 23-25 22-24h53l13 13 13 12-4-25-3-25-32-3-33-3v21h-51l3-17 3-18 37-18 38-19 33 11 34 12 12 25 11 25v189h-49l-3-62-3-63-29-3-29-4-8 14c-5 7-9 37-9 66v52h-53l6-66zm427 42-23-25-1-41-1-42 28-24 28-24h65l12 12 12 12v-24h40v131l-25 24-24 25h-88l-23-24zm98-28 12-12v-55l-21-11-20-11-25 16-24 15v20c0 39 51 65 78 38zm84-20 6-72 22-18 22-18h64l12 12 12 12 12-12 12-12h66l20 20 20 20v140h-40v-101l-10-20-11-19h-28l-11 19-10 20v101h-50v-131l-15-5-15-6-15 12-15 12v118h-53l5-72z"/></g><g fill="#a0a0a0" transform="matrix(.1 0 0 -.1 0 256)"><path d="M165 1481c-125-31-189-140-154-264l10-38 36-40 35-39 51-15 51-15 36 6c134 25 205 137 169 267l-10 38-36 40-35 39-51 15c-55 16-58 16-102 6zm123-48 33-16 26-34 26-34 5-49 4-49-21-45-22-45-45-21-45-22-32 6c-38 7-73 29-87 56l-10 20 20 20 20 20h-11c-15 0-53-21-61-34l-8-11v11c0 6 9 19 20 29l20 18 38-6c22-2 55-12 75-22l36-17 3-16 3-16 18 19 19 18-6 16c-3 9-13 38-22 64l-17 48-63 45c-35 25-64 50-64 54 0 23 93 18 148-7zm-48-133c0-18-19-11-30 11l-12 21 21-12c12-6 21-15 21-20zm597 137-18-13 7-17 6-17h39l6 16 6 16-15 14-14 14-17-13zm855-119 3-123h40l5 59 5 59 18 11 17 11 18-11 17-11 5-59 5-59h40l3 24c2 13 1 44-3 68l-6 44-20 20-19 19h-56l-12-12-12-12v94h-51l3-122zm700 0 3-123h40l5 35 5 35 30-37 30-38h23c29 0 28 5-13 53l-35 41 35 36c41 42 43 50 13 50h-22l-33-32-33-32v134h-51l3-122zm-1909 28-28-24-3-101-4-101h52v94l12-12c15-15 50-15 82-1l25 12 11 28 12 29-7 27c-3 16-16 38-27 51l-21 22h-76l-28-24zm101-37 15-21-8-21c-4-12-15-26-24-31l-15-10-26 12-26 12v56l12 12c7 7 22 12 34 12h23l15-21zm96 41-20-20v-140h40v54c0 30 3 61 6 70l6 16h38l12-20 13-20h35v11c0 15-21 53-34 61-6 4-26 8-43 8h-33l-20-20zm150-70v-90h40v180h-40v-90zm70 81c0-6 14-46 32-91l32-81 25 3 25 3 27 67c15 37 30 76 34 87l6 21h-49l-23-67-22-67-25 67-24 67h-38v-9zm225-3c-30-18-44-40-45-71 0-53 35-96 80-97h26l22 16 22 15v-32l18 3 17 4-1 58-1 58-20 26-20 27-39 2-39 3-20-12zm83-40c7-7 12-22 12-34v-23l-16-15c-8-9-24-16-34-16h-20l-16 25-16 25 16 25 16 25h23c13 0 28-5 35-12zm108 30-25-23-2-20c-1-11-1-30 0-43l1-23 25-24 24-25h73l31 32 32 33-23 3-24 4-19-18-20-18-27 10-27 9-3 22c-2 12 2 31 8 42l11 21h47l12-15 12-15h49l-15 29c-17 33-34 41-81 41h-34l-25-22zm174-43v-66l25-24c26-27 46-31 76-15l19 11v-40l-18-10-19-10-27 15c-53 27-74 12-36-26l20-20h78l23 19 24 19 3 106 4 106h-52v-118l-15-12-16-13-24 11-25 12v120h-40v-65zm437 54c-11-6-25-25-32-42l-13-30 9-31 9-31 21-17 21-18h25c13 0 33 5 44 10l19 11v-21h40v111l-15 28c-8 16-22 31-30 35-25 9-78 7-98-5zm87-45c21-20 20-37-2-64l-19-23-26 7-27 6-6 24-6 24 12 21 11 21h48l15-16zm86-14v-70l20-20 20-20h23c12 0 32 6 43 14l20 14 19-14c10-8 31-14 45-14h26l22 20 22 21v139h-40v-118l-16-13-16-13-16 11-17 10-3 62-3 61h-39v-106l-14-20-15-19-18 11-18 11-3 62-3 61h-39v-70z"/></g><g fill="#e78181" transform="matrix(.1 0 0 -.1 0 256)"><path d="M165 1481c-125-31-189-140-154-264l10-38 36-40 35-39 51-15 51-15 36 6c134 25 205 137 169 267l-10 38-36 40-35 39-51 15c-55 16-58 16-102 6zm123-48 33-16 26-34 26-34 5-49 4-49-21-45-22-45-45-21-45-22-32 6c-38 7-73 29-87 56l-10 20 20 20 20 20h-11c-15 0-53-21-61-34l-8-11v11c0 6 9 19 20 29l20 18 38-6c22-2 55-12 75-22l36-17 3-16 3-16 18 19 19 18-6 16c-3 9-13 38-22 64l-17 48-63 45c-35 25-64 50-64 54 0 23 93 18 148-7zm-48-133c0-18-19-11-30 11l-12 21 21-12c12-6 21-15 21-20zm597 137-18-13 7-17 6-17h39l6 16 6 16-15 14-14 14-17-13zm855-119 3-123h40l5 59 5 59 18 11 17 11 18-11 17-11 5-59 5-59h40l3 24c2 13 1 44-3 68l-6 44-20 20-19 19h-56l-12-12-12-12v94h-51l3-122zm700 0 3-123h40l5 35 5 35 30-37 30-38h23c29 0 28 5-13 53l-35 41 35 36c41 42 43 50 13 50h-22l-33-32-33-32v134h-51l3-122zm-1881 41c-13-5-30-17-37-27l-13-17-1-92v-93h30v45c0 25 2 45 4 45s16-6 31-14l27-14 29 10 29 10 10 18c6 10 10 34 10 52l-1 33-13 17c-12 16-58 39-74 37-4 0-18-5-31-10zm83-52 10-16-10-28-9-28-18-3c-10-2-29-1-42 2l-24 6-6 20-6 20 6 21 7 20 21 8 22 8 20-7c10-4 24-14 29-23zm108 53-22-9-10-26c-6-15-10-49-10-76v-49h40v118l14 11 15 12 20-11c12-6 21-15 21-20 0-6 7-10 15-10h15v19c0 23-17 38-50 45l-25 5-23-9zm432-4-31-14-11-32-12-32 15-33 14-34 28-8c35-9 53-6 76 14l17 16v-33h30v99l-11 25-12 25-30 11c-37 12-35 12-73-4zm67-26c5 0 14-12 20-26l10-27-16-23-15-24h-56l-12 12-12 12v55l22 16 23 15 13-5c8-3 18-5 23-5zm149 33c-8-3-25-15-37-26l-23-20v-66l23-25 22-25 20-2c11-1 30-1 43 0l22 1 20 20c11 11 20 25 20 30 0 15-26 12-40-5l-12-15h-58l-15 24-16 24 12 25 11 25 19 5 18 5 27-14c15-8 34-13 42-12l14 3-18 22-19 23-30 5c-16 2-37 2-45-2zm577-4c-11-6-25-25-32-42l-13-30 9-31 9-31 21-17 21-18h25c13 0 33 5 44 10l19 11v-21h40v111l-15 28c-8 16-22 31-30 35-25 9-78 7-98-5zm87-45c21-20 20-37-2-64l-19-23-26 7-27 6-6 24-6 24 12 21 11 21h48l15-16zm86-14v-70l20-20 20-20h23c12 0 32 6 43 14l20 14 19-14c10-8 31-14 45-14h26l22 20 22 21v139h-40v-118l-16-13-16-13-16 11-17 10-3 62-3 61h-39v-106l-14-20-15-19-18 11-18 11-3 62-3 61h-39v-70zm-1270-20v-80h40v160h-40v-80zm91 28c12-29 26-66 31-81l10-28 25 3 25 3 23 58c13 31 27 66 30 77l6 20h-37l-18-55c-9-30-21-57-26-60l-9-5-22 60-22 60h-37l21-52zm569 8c0-49 15-96 33-108s62-9 75 4l12 12 6-7 6-6-6-26-7-26-16-6-16-6-34 12-34 13-7-7-7-7 24-19 23-19h55l27 21 26 20v199h-30v-91l-10-20-11-19h-22c-12 0-28 4-35 9l-13 8-6 56-6 57h-27v-44z"/></g><g fill="#666" transform="matrix(.1 0 0 -.1 0 256)"><path d="m103 1454-43-25-24-42c-14-23-28-59-31-80l-7-38 12-44 12-44 33-34c18-19 49-41 68-50l35-17h105l43 25 43 26 28 47 28 47v123l-30 43-30 42-44 24-44 23H145l-42-26zm157-4 36-10 31-32c39-41 53-76 53-136v-47l-20-32-19-32-40-21-40-20h-68l-27 21c-14 11-31 30-37 41l-11 20 18 19 17 19h-9c-5 0-20-7-33-16l-23-16 4-34c5-41 1-43-13-8l-10 27 7 19 6 20 33 14 33 13 51-15 50-15 15-20 14-21 11 7 11 6v58l-10 6c-5 3-10 16-10 29v22l-27 26c-16 13-49 40-75 58-27 18-48 35-48 37 0 7 46 22 70 22 14 1 41-4 60-9zm-26-135 20-15-8-7-7-7-16 10c-19 12-29 34-16 34 4 0 17-7 27-15zm598 103 3-23 16-3 16-3 7 16c8 22-1 35-25 35h-20l3-22zm868-98v-120h39l3 63 3 62h69l7-25c4-14 7-42 8-62l1-38h30v129l-26 20-27 21h-21c-12 0-27-5-34-12l-12-12v94h-40v-120zm700 0v-120h30v74l38-37 38-37h48l-37 38c-20 21-37 41-37 45s16 25 36 47l36 40h-43l-30-35c-17-19-35-35-40-35h-9v140h-30v-120zm-1889 39c-13-5-30-17-37-27l-13-17-1-92v-93h30v45c0 25 2 45 4 45s16-6 31-14l27-14 29 10 29 10 10 18c6 10 10 34 10 52l-1 33-13 17c-12 16-58 39-74 37-4 0-18-5-31-10zm83-52 10-16-10-28-9-28-18-3c-10-2-29-1-42 2l-24 6-6 20-6 20 6 21 7 20 21 8 22 8 20-7c10-4 24-14 29-23zm108 53-22-9-10-26c-6-15-10-49-10-76v-49h40v118l14 11 15 12 20-11c12-6 21-15 21-20 0-6 7-10 15-10h15v19c0 23-17 38-50 45l-25 5-23-9zm432-4-31-14-11-32-12-32 15-33 14-34 28-8c35-9 53-6 76 14l17 16v-33h30v99l-11 25-12 25-30 11c-37 12-35 12-73-4zm67-26c5 0 14-12 20-26l10-27-16-23-15-24h-56l-12 12-12 12v55l22 16 23 15 13-5c8-3 18-5 23-5zm149 33c-8-3-25-15-37-26l-23-20v-66l23-25 22-25 20-2c11-1 30-1 43 0l22 1 20 20c11 11 20 25 20 30 0 15-26 12-40-5l-12-15h-58l-15 24-16 24 12 25 11 25 19 5 18 5 27-14c15-8 34-13 42-12l14 3-18 22-19 23-30 5c-16 2-37 2-45-2zm584-5c-26-12-44-48-44-87v-27l20-21 19-21 31-7 31-7 20 18 19 17v-23h40v112l-29 29-29 29-29-1c-15 0-38-5-49-11zm86-49c6-11 10-30 8-42l-3-22-28-9-28-10-17 10-17 11-3 27-3 27 12 15 11 14h57l11-21zm80-8v-70l26-20c32-25 52-26 81-6l21 15 29-15c38-20 50-19 78 10l25 24v131h-39l-3-67-3-68-24-3-24-4-8 14c-5 7-9 39-9 71v57h-39l-3-67-3-68h-60l-3 68-3 67h-39v-69zm-1270-21v-80h40v160h-40v-80zm91 28c12-29 26-66 31-81l10-28 25 3 25 3 23 58c13 31 27 66 30 77l6 20h-37l-18-55c-9-30-21-57-26-60l-9-5-22 60-22 60h-37l21-52zm569 8c0-49 15-96 33-108s62-9 75 4l12 12 6-7 6-6-6-26-7-26-16-6-16-6-34 12-34 13-7-7-7-7 24-19 23-19h55l27 21 26 20v199h-30v-91l-10-20-11-19h-22c-12 0-28 4-35 9l-13 8-6 56-6 57h-27v-44z"/></g><g fill="#cf0909" transform="matrix(.1 0 0 -.1 0 256)"><path d="m103 1454-43-25-24-42c-14-23-28-59-31-80l-7-38 12-44 12-44 33-34c18-19 49-41 68-50l35-17h105l43 25 43 26 28 47 28 47v123l-30 43-30 42-44 24-44 23H145l-42-26zm157-4 36-10 31-32c39-41 53-76 53-136v-47l-20-32-19-32-40-21-40-20h-68l-27 21c-14 11-31 30-37 41l-11 20 18 19 17 19h-9c-5 0-20-7-33-16l-23-16 4-34c5-41 1-43-13-8l-10 27 7 19 6 20 33 14 33 13 51-15 50-15 15-20 14-21 11 7 11 6v58l-10 6c-5 3-10 16-10 29v22l-27 26c-16 13-49 40-75 58-27 18-48 35-48 37 0 7 46 22 70 22 14 1 41-4 60-9zm-26-135 20-15-8-7-7-7-16 10c-19 12-29 34-16 34 4 0 17-7 27-15zm598 103 3-23 16-3 16-3 7 16c8 22-1 35-25 35h-20l3-22zm868-98v-120h39l3 63 3 62h69l7-25c4-14 7-42 8-62l1-38h30v129l-26 20-27 21h-21c-12 0-27-5-34-12l-12-12v94h-40v-120zm700 0v-120h30v74l38-37 38-37h48l-37 38c-20 21-37 41-37 45s16 25 36 47l36 40h-43l-30-35c-17-19-35-35-40-35h-9v140h-30v-120zm-466 38c-26-12-44-48-44-87v-27l20-21 19-21 31-7 31-7 20 18 19 17v-23h40v112l-29 29-29 29-29-1c-15 0-38-5-49-11zm86-49c6-11 10-30 8-42l-3-22-28-9-28-10-17 10-17 11-3 27-3 27 12 15 11 14h57l11-21zm80-8v-70l26-20c32-25 52-26 81-6l21 15 29-15c38-20 50-19 78 10l25 24v131h-39l-3-67-3-68-24-3-24-4-8 14c-5 7-9 39-9 71v57h-39l-3-67-3-68h-60l-3 68-3 67h-39v-69z"/></g></g></svg>