<?xml version="1.0"?><svg version="1.2" baseProfile="tiny-ps" viewBox="0 0 300 300" xmlns="http://www.w3.org/2000/svg" xmlns:xlink="http://www.w3.org/1999/xlink"><title>PrivacyHawk</title><g><g fill="#cd1e36" transform="matrix(.1 0 0 -.1 0 300)"><path d="M1330 2989c-228-26-476-117-667-246-330-222-548-550-634-953L6 1685v-370l22-101c45-208 115-377 229-549l67-100 96-99 95-98 78-59c207-156 419-245 692-289l120-20h188l126 21 126 20 120 40 119 40 104 54c56 29 140 80 185 112l82 58 100 100 100 100 64 90 63 90 58 120c62 127 96 227 126 365l19 85v410l-18 85c-140 656-660 1128-1319 1200-110 11-209 11-318-1zm289-199 102-11 94-24c469-119 816-469 941-950l26-100 5-156 6-157-18-103c-31-186-95-348-196-495l-49-71-78-75c-175-170-386-269-632-299l-95-11-80 7c-209 18-372 79-518 193-69 55-153 152-192 223l-27 50-5 59-6 59 27 55 27 55 34 30c19 16 54 41 78 55l44 26 73 19 72 18-32 7c-18 3-65 6-105 6h-72l-75-19c-42-11-103-33-135-50l-60-30-47-46-47-46-30-63-29-63-7-65-6-66 22-68 21-69 49-66 49-67 59-48c32-27 72-60 88-72l30-24-50 28c-27 15-83 50-124 78l-74 51-40 50c-22 27-51 74-64 103l-23 53-12 70-12 69 11 66 12 67 30 61 30 61 53 52c29 28 80 68 113 88l60 36 70 21 70 22h180l90-23c50-13 157-45 240-72l150-49 90-44c49-24 116-63 148-87l58-43 29-45 30-44v-88l-16-31-16-30 53 28c29 16 79 53 111 82l57 53 26 54 26 53 6 54 5 53-16 64-16 64-35 66c-20 36-59 95-88 131l-52 65v220l-13 45-14 45-66 65c-105 103-425 345-840 635-94 66-172 123-172 127 0 12 152 70 248 94 161 41 282 50 441 34zm94-1057c64-41 117-78 117-82 0-9-46-43-87-64l-32-17h-85l-41 44-41 45-56 108c-31 59-59 118-63 131l-7 23 89-57c48-31 141-90 206-131z"/></g></g></svg>